<?xml version="1.0" encoding="UTF-8" standalone="no"?>
<!-- Uploaded to: SVG Repo, www.svgrepo.com, Generator: SVG Repo Mixer Tools -->

<svg
   fill="#000000"
   height="800px"
   width="800px"
   version="1.1"
   id="Layer_1"
   viewBox="0 0 128 85.2"
   xml:space="preserve"
   sodipodi:docname="sleep-in-bed-sleep-nap-rest-svgrepo-com.svg"
   inkscape:version="1.4 (86a8ad7, 2024-10-11)"
   xmlns:inkscape="http://www.inkscape.org/namespaces/inkscape"
   xmlns:sodipodi="http://sodipodi.sourceforge.net/DTD/sodipodi-0.dtd"
   xmlns="http://www.w3.org/2000/svg"
   xmlns:svg="http://www.w3.org/2000/svg"><defs
   id="defs6" /><sodipodi:namedview
   id="namedview6"
   pagecolor="#ffffff"
   bordercolor="#000000"
   borderopacity="0.25"
   inkscape:showpageshadow="2"
   inkscape:pageopacity="0.0"
   inkscape:pagecheckerboard="0"
   inkscape:deskcolor="#d1d1d1"
   inkscape:zoom="0.96625"
   inkscape:cx="400"
   inkscape:cy="400"
   inkscape:window-width="1920"
   inkscape:window-height="991"
   inkscape:window-x="-9"
   inkscape:window-y="-9"
   inkscape:window-maximized="1"
   inkscape:current-layer="Layer_1" />
<g
   id="g6"
   style="fill:#677343;fill-opacity:1">
	<g
   id="g5"
   style="fill:#677343;fill-opacity:1">
		<g
   id="g1"
   style="fill:#677343;fill-opacity:1">
			<circle
   cx="28.9"
   cy="23.2"
   r="11.3"
   id="circle1"
   style="fill:#677343;fill-opacity:1" />
			<path
   d="M28.9,23.2"
   id="path1"
   style="fill:#677343;fill-opacity:1" />
		</g>
		<g
   id="g2"
   style="fill:#677343;fill-opacity:1">
			<path
   d="M53.4,20h45.4c6.7,0,10.6,4.3,10.6,10v16.4H53.4V20z"
   id="path2"
   style="fill:#677343;fill-opacity:1" />
		</g>
		<g
   id="g3"
   style="fill:#677343;fill-opacity:1">
			<path
   d="M41,25.9v9.8H23.6c-8.4,0-8.4,10.9,0,10.9h22.9c3.3,0,5.4-2.7,5.4-5.7v-15C51.9,17.7,41,17.7,41,25.9z"
   id="path3"
   style="fill:#677343;fill-opacity:1" />
		</g>
		<g
   id="g4"
   style="fill:#677343;fill-opacity:1">
			<path
   d="M15.3,10.6c0-8.9-12.4-8.9-12.4,0v71.6h12.7V63.7H112v18.4h12.4V26.7c0-9.4-12.5-9.4-12.5,0v22.1H15.3V10.6z"
   id="path4"
   style="fill:#677343;fill-opacity:1" />
		</g>
	</g>
</g>
</svg>
