<?xml version="1.0" encoding="UTF-8" standalone="no"?>
<!-- Uploaded to: SVG Repo, www.svgrepo.com, Generator: SVG Repo Mixer Tools -->

<svg
   fill="#000000"
   version="1.1"
   id="Capa_1"
   width="800px"
   height="800px"
   viewBox="0 0 440 440"
   xml:space="preserve"
   sodipodi:docname="winner-on-the-podium-svgrepo-com.svg"
   inkscape:version="1.4 (86a8ad7, 2024-10-11)"
   xmlns:inkscape="http://www.inkscape.org/namespaces/inkscape"
   xmlns:sodipodi="http://sodipodi.sourceforge.net/DTD/sodipodi-0.dtd"
   xmlns="http://www.w3.org/2000/svg"
   xmlns:svg="http://www.w3.org/2000/svg"><defs
   id="defs4" /><sodipodi:namedview
   id="namedview4"
   pagecolor="#ffffff"
   bordercolor="#000000"
   borderopacity="0.25"
   inkscape:showpageshadow="2"
   inkscape:pageopacity="0.0"
   inkscape:pagecheckerboard="0"
   inkscape:deskcolor="#d1d1d1"
   inkscape:zoom="0.96625"
   inkscape:cx="400"
   inkscape:cy="482.79431"
   inkscape:window-width="1920"
   inkscape:window-height="991"
   inkscape:window-x="-9"
   inkscape:window-y="-9"
   inkscape:window-maximized="1"
   inkscape:current-layer="Capa_1" />
<g
   id="g4"
   style="fill:#677343;fill-opacity:1">
	<g
   id="g3"
   style="fill:#677343;fill-opacity:1">
		<path
   d="M390.06,362.087h-98.135v-7.937c6.968-4.521,11.397-12.33,11.397-21.01c0-13.82-11.245-25.063-25.067-25.063h-23.63    c5.48-2.007,9.062-7.575,8.311-13.615L248.684,180.32c3.088-4.218,4.985-9.223,4.985-14.816l0.019-71.041    c29.055-11.022,66.911-39.934,71.65-43.6c4.649-3.597,5.502-10.28,1.907-14.929c-3.597-4.648-10.281-5.502-14.93-1.908    c-12.146,9.391-45.337,32.976-67.113,40.899c-0.644-0.299-8.17-3.79-10.636-4.933l-4.719-3.978    c-0.326-0.275-0.802-0.254-1.104,0.045l-7.477,7.437c-0.302,0.31-0.219,0.752-0.219,0.752l1.131,7.098l7.041,50.766    c0.053,0.374-0.054,0.752-0.293,1.043l-7.882,9.632c-0.255,0.314-0.64,0.496-1.047,0.496c-0.406,0-0.791-0.182-1.048-0.496    l-7.88-9.632c-0.241-0.291-0.346-0.669-0.293-1.043l5.509-39.708l2.877-18.083c0,0,0.097-0.532-0.206-0.823l-7.478-7.438    c-0.145-0.147-0.338-0.226-0.532-0.236c-0.005-0.001-0.005-0.005-0.005-0.009l-0.012,0.009c-0.196-0.005-0.393,0.057-0.556,0.191    l-4.675,3.944c-2.391,1.093-9.996,4.57-10.873,4.978c-21.775-7.911-54.994-31.516-67.146-40.911    c-4.65-3.595-11.335-2.741-14.929,1.908c-3.596,4.648-2.742,11.332,1.906,14.929c4.739,3.666,42.595,32.576,71.647,43.6    l0.02,71.041c0,5.594,1.899,10.599,4.986,14.816l-14.248,114.143c-0.751,6.04,2.829,11.607,8.311,13.615H161.74    c-13.821,0-25.067,11.244-25.067,25.062c0,8.682,4.43,16.49,11.397,21.01v7.938H49.938c-13.821,0-25.067,11.244-25.067,25.065    c0,8.493,4.321,17.411,11.397,21.896V440h20.13v-45.26c0,0-11.397-1.006-11.397-7.588c0-2.723,2.215-4.937,4.938-4.937h118.265    V341.25c0,0-11.398-3.1-11.398-8.107c0-2.721,2.217-4.933,4.938-4.933h116.512c2.722,0,4.938,2.212,4.938,4.933    c0,5.008-11.399,8.107-11.399,8.107v40.968h118.267c2.723,0,4.938,2.214,4.938,4.937c0,6.582-11.398,7.588-11.398,7.588V440    h20.132v-30.95c7.074-4.485,11.396-13.403,11.396-21.896C415.127,373.332,403.881,362.087,390.06,362.087z M194.197,308.078    c4.36-1.602,7.697-5.514,8.313-10.438l12.912-103.438c1.537,0.216,3.067,0.329,4.574,0.329c1.508,0,3.04-0.113,4.579-0.329    l12.913,103.438c0.615,4.926,3.953,8.836,8.314,10.438H194.197z"
   id="path1"
   style="fill:#677343;fill-opacity:1" />
		<path
   id="path2"
   style="fill:#677343;fill-opacity:1"
   d="m 222.36543,364.39111 c -0.12358,0.36662 -0.24703,0.73338 -0.37061,1.1 0.004,0.14987 0.002,0.29803 -0.005,0.45118 0.0854,0.0494 0.17042,0.0989 0.25137,0.15146 0.0487,-0.56352 0.0851,-1.13489 0.12461,-1.70264 z m -2.76289,34.08067 v 1.48242 c 0.1581,-0.28642 0.30454,-0.58445 0.56826,-0.76377 0.0381,-0.0259 0.0913,-0.0247 0.14932,-0.014 -0.0171,-0.11336 -0.0414,-0.25448 -0.0569,-0.36308 -0.0502,-0.0234 -0.10637,-0.0455 -0.14931,-0.072 -0.16354,-0.10085 -0.33872,-0.18303 -0.51133,-0.26963 z m 5.90605,19.34883 c -0.0324,0.005 -0.0756,0.0117 -0.10742,0.0161 0.009,0.0343 0.0112,0.0603 0.0193,0.0935 0.0288,-0.0372 0.0603,-0.0714 0.0881,-0.10957 z m -5.88886,0.35341 c 0.0462,0.66395 0.22601,1.29026 0.51562,1.85196 -0.23376,-0.62146 -0.39686,-1.23265 -0.51562,-1.85196 z m 5.02841,0.54248 c -0.24592,0.008 -0.46394,0.0723 -0.6166,0.46084 -0.0692,0.17618 0.32015,-0.20182 0.48018,-0.30293 0.0581,-0.0502 0.1059,-0.1068 0.16221,-0.15791 -0.008,1.5e-4 -0.0175,-2.6e-4 -0.0258,0 z" />
		<path
   d="M219.996,65.815c15.57,0,27.188-14.506,27.453-38.832C247.617,10.101,239.58,0,219.996,0    c-19.581,0-27.62,10.101-27.449,26.982C192.811,51.309,204.427,65.815,219.996,65.815z"
   id="path3"
   style="fill:#677343;fill-opacity:1" />
	</g>
</g>
<rect
   style="fill:#d1d4c5;stroke-width:2.91681;stroke-linecap:square;paint-order:fill markers stroke"
   id="rect4"
   width="19.92238"
   height="87.089272"
   x="210.03882"
   y="58.628727" /></svg>
